An unabashed exercise in cinema stylistics, I Am Cuba is pro-Castro/anti-Batista rhetoric dressed up in the finest clothes. The film's four dramatic stories take place in the final days of the Batista regime; the first two illustrate the ills that led to the revolution, the third and fourth the call to arms which cut across social and economic lines. A lovely young woman in a nightclub frequented by crass American businessmen takes a customer to her modest seaside shack for a night of pleasure for pay, only to be found out by her street vendor suitor; a tenant farmer is told that his crop has been sold to United Fruit and in frustration burns his fields; a middle-class student rallies his pals and workers in a street demonstration against the regime; a peasant eking out a living in the mountains quickly converts to the cause when Batista bombers strafe his land in search of rebel fighters. At face value, this is all obvious agitprop, but director Mikhail Kalazatov turned his cinematographer, Sergei Urusevsky, loose, and the result is a procession of dazzling black-and-white images, shot with a camera that is almost always moving and soaring over the sugar fields, swooping in and out of urban buildings, following characters down narrow streets. Unreleasable to American theaters during the Cold War, I Am Cuba, through the auspices of filmmakers Francis Ford Coppola and Martin Scorsese, got a belated U.S. release in 1995 and has proved to be both a time capsule of a fading political movement and a timeless work of cinematic art.

 
http://www.imdb.com/title/tt0058604/

 
http://en.wikipedia.org/wiki/Soy_Cuba



Subtitles
 
http://www.opensubtitles.org/en/search/sublanguageid-all/idmovie-7288



Director:
Mikhail Kalatozov


	Sergio Corrieri	 ... 	Alberto
	Salvador Wood		
	José Gallardo	... 	Pedro
	Raúl García	... 	Enrique
	Luz María Collazo	... 	Maria / Betty
	Jean Bouise	... 	Jim (in Cuban version) (as Jean Bouisse)


Video #2
      ID : 2
      Format : VC-1
      Format profile : MP@ML
      Codec ID : WMV3
      Codec ID/Info : Windows Media Video 9
      Codec ID/Hint : WMV3
      Duration : 2h 20mn
      Bit rate mode : Variable
      Bit rate : 850 Kbps
      Width : 640 pixels
      Height : 480 pixels
      Display aspect ratio : 4/3
      Frame rate : 25.000 fps
      Resolution : 24 bits
      Scan type : Progressive
      Bits/(Pixel*Frame) : 0.111
      Stream size : 854 MiB (86%)
   Audio #1
      ID : 1
      Format : WMA2
      Format profile : L1
      Codec ID : 161
      Codec ID/Info : Windows Media Audio 2
      Description of the codec : Windows Media Audio 9.2 - 128 kbps, 44 kHz, stereo 1-pass CBR
      Duration : 2h 20mn
      Bit rate mode : Constant
      Bit rate : 128 Kbps
      Channel(s) : 2 channels
      Sampling rate : 44.1 KHz
      Resolution : 16 bits
      Stream size : 129 MiB (13%)


Please seed at least as much as you D/L.
=======================================
Thanks 

John